<?xml version="1.0" encoding="UTF-8" standalone="no"?>
<!-- Created with Inkscape (http://www.inkscape.org/) -->

<svg
   xmlns:dc="http://purl.org/dc/elements/1.1/"
   xmlns:cc="http://creativecommons.org/ns#"
   xmlns:rdf="http://www.w3.org/1999/02/22-rdf-syntax-ns#"
   xmlns:svg="http://www.w3.org/2000/svg"
   xmlns="http://www.w3.org/2000/svg"
   xmlns:xlink="http://www.w3.org/1999/xlink"
   xmlns:sodipodi="http://sodipodi.sourceforge.net/DTD/sodipodi-0.dtd"
   xmlns:inkscape="http://www.inkscape.org/namespaces/inkscape"
   width="78.099861mm"
   height="78.099998mm"
   viewBox="0 0 276.7318 276.73228"
   id="svg4772"
   version="1.1"
   inkscape:version="0.91 r13725"
   sodipodi:docname="dial label.svg">
  <defs
     id="defs4774">
    <pattern
       inkscape:collect="always"
       xlink:href="#pattern5659"
       id="pattern6322"
       patternTransform="matrix(-0.39496706,0.6590856,-2.9756034,-1.7831756,-924.83521,-192.05095)" />
    <pattern
       inkscape:collect="always"
       xlink:href="#Strips1_1"
       id="pattern5659"
       patternTransform="matrix(-0.39496706,0.6590856,-2.9756034,-1.7831756,-158.92114,-192.05095)" />
    <pattern
       inkscape:isstock="true"
       inkscape:stockid="Stripes 1:1"
       id="Strips1_1"
       patternTransform="translate(0,0) scale(10,10)"
       height="1"
       width="2"
       patternUnits="userSpaceOnUse"
       inkscape:collect="always">
      <rect
         id="rect4936"
         height="2"
         width="1"
         y="-0.5"
         x="0"
         style="fill:black;stroke:none" />
    </pattern>
    <clipPath
       clipPathUnits="userSpaceOnUse"
       id="clipPath6544">
      <path
         style="color:#000000;clip-rule:nonzero;display:inline;overflow:visible;visibility:visible;opacity:1;isolation:auto;mix-blend-mode:normal;color-interpolation:sRGB;color-interpolation-filters:linearRGB;solid-color:#000000;solid-opacity:1;fill:none;fill-opacity:1;fill-rule:evenodd;stroke:#ff0000;stroke-width:1.77165353;stroke-linecap:butt;stroke-linejoin:miter;stroke-miterlimit:4;stroke-dasharray:none;stroke-dashoffset:0;stroke-opacity:1;marker:none;color-rendering:auto;image-rendering:auto;shape-rendering:auto;text-rendering:auto;enable-background:accumulate"
         d="M 382.82812,395.49805 A 154.99281,154.99281 0 0 0 227.83594,550.49023 154.99281,154.99281 0 0 0 382.82812,705.48438 154.99281,154.99281 0 0 0 537.82031,550.49023 154.99281,154.99281 0 0 0 382.82812,395.49805 Z m 0,14.12109 a 140.87074,140.87074 0 0 1 140.8711,140.87109 140.87074,140.87074 0 0 1 -140.8711,140.8711 140.87074,140.87074 0 0 1 -140.87109,-140.8711 140.87074,140.87074 0 0 1 140.87109,-140.87109 z"
         id="path6546"
         inkscape:connector-curvature="0" />
    </clipPath>
    <clipPath
       clipPathUnits="userSpaceOnUse"
       id="clipPath6551">
      <path
         style="color:#000000;clip-rule:nonzero;display:inline;overflow:visible;visibility:visible;opacity:1;isolation:auto;mix-blend-mode:normal;color-interpolation:sRGB;color-interpolation-filters:linearRGB;solid-color:#000000;solid-opacity:1;fill:none;fill-opacity:1;fill-rule:evenodd;stroke:#ff0000;stroke-width:1.77165353;stroke-linecap:butt;stroke-linejoin:miter;stroke-miterlimit:4;stroke-dasharray:none;stroke-dashoffset:0;stroke-opacity:1;marker:none;color-rendering:auto;image-rendering:auto;shape-rendering:auto;text-rendering:auto;enable-background:accumulate"
         d="M 382.82812,395.49805 A 154.99281,154.99281 0 0 0 227.83594,550.49023 154.99281,154.99281 0 0 0 382.82812,705.48438 154.99281,154.99281 0 0 0 537.82031,550.49023 154.99281,154.99281 0 0 0 382.82812,395.49805 Z m 0,14.12109 a 140.87074,140.87074 0 0 1 140.8711,140.87109 140.87074,140.87074 0 0 1 -140.8711,140.8711 140.87074,140.87074 0 0 1 -140.87109,-140.8711 140.87074,140.87074 0 0 1 140.87109,-140.87109 z"
         id="path6553"
         inkscape:connector-curvature="0" />
    </clipPath>
  </defs>
  <sodipodi:namedview
     id="base"
     pagecolor="#ffffff"
     bordercolor="#666666"
     borderopacity="1.0"
     inkscape:pageopacity="0.0"
     inkscape:pageshadow="2"
     inkscape:zoom="1.6286564"
     inkscape:cx="107.1983"
     inkscape:cy="135.15387"
     inkscape:document-units="mm"
     inkscape:current-layer="g4186"
     showgrid="false"
     units="mm"
     showguides="false"
     inkscape:guide-bbox="true"
     inkscape:snap-global="false"
     inkscape:object-nodes="true"
     inkscape:snap-bbox="true"
     inkscape:bbox-paths="false"
     inkscape:bbox-nodes="false"
     inkscape:object-paths="true"
     inkscape:window-width="1364"
     inkscape:window-height="747"
     inkscape:window-x="0"
     inkscape:window-y="1939"
     inkscape:window-maximized="0"
     inkscape:snap-object-midpoints="true"
     fit-margin-top="1"
     fit-margin-left="1"
     fit-margin-right="1"
     fit-margin-bottom="1">
    <sodipodi:guide
       position="271.3199,10.350179"
       orientation="1,0"
       id="guide5420" />
    <sodipodi:guide
       position="158.31283,273.44795"
       orientation="0,1"
       id="guide5422" />
  </sodipodi:namedview>
  <metadata
     id="metadata4777">
    <rdf:RDF>
      <cc:Work
         rdf:about="">
        <dc:format>image/svg+xml</dc:format>
        <dc:type
           rdf:resource="http://purl.org/dc/dcmitype/StillImage" />
        <dc:title></dc:title>
      </cc:Work>
    </rdf:RDF>
  </metadata>
  <g
     inkscape:label="outline"
     inkscape:groupmode="layer"
     id="layer1"
     transform="translate(-245.44515,-419.0457)"
     style="display:inline">
    <path
       style="fill:none;stroke:#000000;stroke-width:0.35433072;stroke-miterlimit:4;stroke-dasharray:none"
       d="m 254.86385,422.76617 c -5.0027,0 -5.69586,2.25171 -5.69586,6.77226 l 0,154.23316 19.34394,0 c 6.89423,-2e-5 12.44522,5.50728 12.44522,12.34722 0.0693,2.13566 0.12476,4.0606 0.15527,5.66663 0.11502,6.07539 0.0174,7.88644 -1.14193,9.15123 -1.07058,1.61494 -2.90986,2.67731 -5.01188,2.67731 l -25.41719,0 c -0.19501,-0.0153 -0.40171,0.16148 -0.37343,0.45239 l 0,71.37294 c 0.8493,4.03039 2.96808,5.90082 7.49425,6.6182 l 254.29762,0 c 4.52617,-0.71738 6.64494,-2.58781 7.49425,-6.6182 l 0,-71.37294 c 0.0283,-0.29091 -0.17842,-0.46763 -0.37343,-0.45239 l -25.41718,0 c -2.10202,0 -3.94132,-1.06237 -5.0119,-2.67731 -1.15935,-1.26479 -1.25695,-3.07584 -1.14193,-9.15123 0.0551,-1.90485 0.0723,-3.80161 0.15527,-5.66663 0,-6.83994 5.551,-12.34724 12.44523,-12.34722 l 19.34394,0 0,-154.23316 c 0,-4.52055 -0.69316,-6.77226 -5.69587,-6.77226 z m 128.94327,153.49412 0.008,0 c 19.53937,0.0143 36.29201,13.84937 39.84947,32.91165 l 8.19592,0 c 5.71592,0 10.31665,4.56449 10.31665,10.23541 l 0,38.40278 c 0,5.6709 -4.60073,10.23541 -10.31665,10.23541 l -96.09884,0 c -5.71592,0 -10.31663,-4.56451 -10.31663,-10.23541 l 0,-38.40278 c 0,-5.67092 4.60071,-10.23541 10.31663,-10.23541 l 8.19592,0 c 3.55748,-19.06228 20.3101,-32.89735 39.84948,-32.91165 z m -64.39203,19.77078 c 3.61763,1.9e-4 6.55065,2.90815 6.55084,6.4973 1.3e-4,3.58937 -2.93298,6.50103 -6.55084,6.50122 -3.6181,1.4e-4 -6.55098,-2.91162 -6.55085,-6.50122 1.9e-4,-3.58937 2.93298,-6.49743 6.55085,-6.4973 z m 128.79192,0 c 3.61786,-1.3e-4 6.55065,2.90793 6.55084,6.4973 1.3e-4,3.5896 -2.93275,6.50136 -6.55084,6.50122 -3.61787,-1.9e-4 -6.55098,-2.91185 -6.55084,-6.50122 1.8e-4,-3.58915 2.9332,-6.49711 6.55084,-6.4973 z"
       id="path5385"
       inkscape:connector-curvature="0"
       sodipodi:nodetypes="cscscccsccccccccscccscscccccsssccssscccccccccccc" />
  </g>
  <g
     inkscape:groupmode="layer"
     id="layer2"
     inkscape:label="stock face"
     sodipodi:insensitive="true"
     style="display:none"
     transform="translate(-245.44515,-356.68349)">
    <path
       transform="translate(0,-62.362205)"
       style="fill:#000000"
       d="m 282.7301,579.86567 c -0.0844,-0.22003 -0.11384,-1.46423 -0.0653,-2.76488 l 0.0882,-2.36482 0.91971,-0.0898 c 0.57721,-0.0564 1.18942,0.1286 1.64398,0.49668 0.6125,0.49596 0.72428,0.84835 0.72428,2.28328 0,1.4226 -0.11403,1.78913 -0.70566,2.2682 -0.81223,0.65771 -2.37895,0.76076 -2.60513,0.17135 z m 2.2541,-1.07483 c 0.69801,-1.30424 0.15488,-3.30761 -0.89672,-3.30761 -0.52355,0 -0.58729,0.21087 -0.58729,1.94289 0,1.73202 0.0637,1.94288 0.58729,1.94288 0.32301,0 0.72654,-0.26017 0.89672,-0.57816 z m 1.56817,-1.26122 c 0.0514,-1.66319 0.20728,-2.76718 0.38523,-2.72822 0.1644,0.036 0.34445,0.43674 0.40011,0.89055 l 0.10119,0.82512 0.82503,-1.01087 c 1.1118,-1.36224 1.81082,-0.971 0.75002,0.41979 l -0.76565,1.00381 0.76446,1.50857 c 0.8534,1.6841 0.89019,1.82735 0.46929,1.82735 -0.16234,0 -0.66501,-0.57166 -1.11705,-1.27035 l -0.8219,-1.27035 -0.15329,1.17226 c -0.0843,0.64474 -0.32666,1.22935 -0.53853,1.29913 -0.29992,0.0988 -0.36612,-0.49178 -0.29891,-2.66679 z m 7.246,2.00933 c -0.34931,-0.53312 -0.43217,-1.01202 -0.27468,-1.58757 0.12403,-0.45329 0.19665,-1.25152 0.16138,-1.77384 -0.0845,-1.25146 0.76986,-1.7806 1.75778,-1.08864 0.53726,0.37631 0.64467,0.67119 0.52133,1.43124 -0.0854,0.5265 -0.0516,1.12509 0.0751,1.33018 0.13659,0.22101 0.29597,-0.20819 0.39126,-1.05364 0.19635,-1.74201 0.89938,-2.42754 1.84681,-1.80085 0.49059,0.32451 0.6346,0.78071 0.70528,2.23434 0.0489,1.00462 -0.0568,2.0986 -0.2347,2.43106 -0.44468,0.83091 -1.38375,0.75798 -1.9812,-0.15385 l -0.49689,-0.75835 -0.33948,0.68362 c -0.48959,0.98591 -1.52194,1.03738 -2.13201,0.1063 z m 1.50859,-1.07076 c 0,-1.06358 -0.87056,-0.97157 -0.99382,0.10505 -0.0785,0.68586 0.007,0.82811 0.44835,0.74317 0.3536,-0.0681 0.54547,-0.36646 0.54547,-0.84822 z m 2.95708,0.42801 c 0.52302,-1.36297 -0.12404,-3.90458 -0.81751,-3.21111 -0.25756,0.25756 -0.25535,3.2267 0.003,3.48464 0.32732,0.32733 0.62235,0.2283 0.81492,-0.27353 z m -3.10653,-2.84007 c 0,-0.72844 -0.69847,-0.62548 -0.84391,0.12441 -0.0572,0.29495 0.0953,0.49831 0.37364,0.49831 0.27727,0 0.47027,-0.25556 0.47027,-0.62272 z m 144.37149,3.61178 c -0.45095,-0.45095 -0.59781,-0.99635 -0.59781,-2.2201 0,-1.39656 0.10958,-1.70848 0.78757,-2.24179 0.43317,-0.34073 0.95035,-0.61951 1.1493,-0.61951 0.62945,0 1.4392,1.13268 1.21934,1.70563 -0.18662,0.48634 -0.24884,0.47314 -0.72107,-0.1529 -0.32622,-0.43248 -0.69437,-0.61704 -0.99824,-0.50043 -0.61941,0.23769 -0.93868,1.93483 -0.55421,2.94605 0.3611,0.94974 1.38259,1.05408 1.66323,0.16988 0.24056,-0.75794 0.93073,-0.58555 0.78836,0.19691 -0.25422,1.39721 -1.68185,1.77089 -2.73647,0.71626 z m 3.28796,-2.07742 c 0,-2.20524 0.0829,-2.70507 0.44836,-2.70507 0.35902,0 0.44836,0.45046 0.44836,2.26073 l 0,2.26073 0.9531,-0.0937 c 0.90122,-0.0886 0.98713,-0.20741 1.5785,-2.1837 0.86066,-2.87619 1.3344,-2.85829 2.17736,0.0823 0.36924,1.28805 0.67134,2.50211 0.67134,2.69791 0,0.6973 -0.5446,0.34087 -0.85953,-0.56254 -0.40377,-1.15824 -1.55911,-1.14446 -1.83062,0.0218 -0.15717,0.6751 -0.33874,0.75592 -1.88042,0.8369 l -1.70645,0.0897 z m 4.78249,-0.48092 c 0,-0.43382 -0.12937,-0.68494 -0.2989,-0.58017 -0.1644,0.1016 -0.29891,0.44581 -0.29891,0.76491 0,0.31909 0.13451,0.58017 0.29891,0.58017 0.1644,0 0.2989,-0.34421 0.2989,-0.76491 z m 2.26315,2.68644 c -0.44939,-0.44938 -0.66156,-1.62263 -0.29344,-1.62263 0.0969,0 0.41226,0.29145 0.7007,0.64766 0.33184,0.4098 0.7062,0.57791 1.01936,0.45774 0.83101,-0.31889 0.55465,-1.02697 -0.62598,-1.60387 -1.3398,-0.65466 -1.63694,-1.76727 -0.69873,-2.61634 0.74859,-0.67746 1.99612,-0.4319 2.27535,0.44788 0.26386,0.83134 -0.11177,1.15046 -0.58784,0.4994 -0.50135,-0.68564 -1.36241,-0.6731 -1.36241,0.0198 0,0.32306 0.41278,0.7393 1.02062,1.02916 1.25215,0.5971 1.58971,1.48692 0.94016,2.47825 -0.55357,0.84486 -1.68164,0.96907 -2.38779,0.26292 z m 3.61184,-0.0769 c -0.52584,-0.58105 -0.67078,-1.54572 -0.23223,-1.54572 0.14434,0 0.45671,0.29258 0.69414,0.65018 0.28314,0.42642 0.60428,0.58395 0.93318,0.45774 0.83712,-0.32124 0.56467,-1.02781 -0.61942,-1.60639 -1.3398,-0.65466 -1.63694,-1.76727 -0.69873,-2.61634 0.74859,-0.67746 1.99612,-0.4319 2.27535,0.44788 0.26386,0.83134 -0.11178,1.15046 -0.58784,0.4994 -0.52146,-0.71315 -1.36241,-0.67025 -1.36241,0.0695 0,0.38376 0.26539,0.65872 0.75423,0.78141 0.77687,0.19498 1.63701,1.15732 1.63701,1.83149 0,0.56947 -1.1164,1.57747 -1.74711,1.57747 -0.30331,0 -0.77409,-0.24598 -1.04617,-0.54662 z m 5.92166,0.23132 c -0.1127,-0.18235 0.28062,-1.03653 0.87405,-1.89816 0.59344,-0.86164 1.07897,-1.71696 1.07897,-1.90073 0,-0.61573 -0.68437,-0.76529 -1.07257,-0.23438 -0.21124,0.28888 -0.52314,0.47757 -0.69311,0.41929 -0.46925,-0.16087 0.33579,-1.57596 0.96556,-1.69724 1.4807,-0.28515 1.90577,1.98806 0.65067,3.47967 -0.411,0.48844 -0.74727,0.98189 -0.74727,1.09656 0,0.11467 0.70617,0.16251 1.56926,0.10631 1.24104,-0.0808 1.56925,-0.008 1.56925,0.34617 0,0.34548 -0.45775,0.46737 -1.99495,0.53122 -1.22513,0.0509 -2.07402,-0.0451 -2.19986,-0.24871 z m 4.82426,-0.32805 c -0.60101,-0.85806 -0.0945,-1.55466 0.51971,-0.71472 0.50058,0.68459 1.09264,0.3677 1.09264,-0.58482 0,-0.8421 -0.51338,-1.25017 -0.98255,-0.781 -0.58539,0.5854 -0.81089,0.36131 -0.81089,-0.80585 0,-1.45794 0.5601,-2.23739 1.51128,-2.10313 0.74349,0.10495 1.04073,0.96881 0.35688,1.0372 -0.86794,0.0868 -0.97144,0.12303 -0.97144,0.34011 0,0.12542 0.30074,0.36081 0.66832,0.52309 0.97655,0.43114 1.36725,1.77878 0.80635,2.78137 -0.58525,1.04612 -1.57566,1.18528 -2.1903,0.30775 z m -174.66875,-2.12153 c 0.0718,-0.21781 0.76775,-0.41131 1.66889,-0.46398 1.23668,-0.0723 1.54577,0.002 1.54577,0.37364 0,0.36397 -0.35974,0.46398 -1.66889,0.46398 -1.20152,0 -1.63441,-0.10464 -1.54577,-0.37364 z m 77.24365,-12.97749 c -0.1096,-0.1096 -0.19927,-0.65462 -0.19927,-1.21117 0,-0.85785 0.1379,-1.05997 0.9058,-1.32767 1.66734,-0.58123 1.78435,-1.21415 1.78435,-9.65163 l 0,-7.63694 1.19563,0 1.19562,0 0.0374,5.3803 c 0.0206,2.95917 0.071,5.51481 0.11209,5.67921 0.0411,0.1644 0.0915,0.57403 0.11209,0.9103 0.0534,0.87329 1.36972,2.07876 2.26996,2.07876 0.45438,0 1.2188,-0.41543 1.88175,-1.02265 l 1.11651,-1.02265 0.0974,-6.01833 0.0974,-6.01833 1.09826,0.0914 1.09826,0.0914 0.0796,7.99573 0.0796,7.99573 -1.05105,0 c -0.93148,0 -1.05106,-0.088 -1.05106,-0.77384 l 0,-0.77383 -0.91975,0.77392 c -1.13433,0.95447 -2.01672,1.19002 -3.73322,0.99654 -1.32887,-0.14978 -1.32968,-0.14928 -1.9122,1.1676 -0.45337,1.02491 -0.86771,1.44676 -1.86602,1.89985 -1.34245,0.60927 -2.09351,0.7318 -2.42905,0.39626 z m 14.15269,-3.74485 c 0.002,-0.0501 0.3432,-1.16717 0.75719,-2.48235 0.41399,-1.31519 1.82731,-5.9557 3.14071,-10.31225 1.3134,-4.35655 2.52013,-8.23135 2.68162,-8.61066 0.25137,-0.59043 0.47619,-0.67644 1.56257,-0.59781 1.18775,0.086 1.29432,0.16836 1.66515,1.28747 0.74502,2.24828 2.80047,8.66477 4.55876,14.23106 0.96646,3.05954 1.84182,5.78332 1.94525,6.05284 0.15865,0.41344 -0.0432,0.49005 -1.29115,0.49005 l -1.4792,0 -0.37047,-1.27035 c -0.20376,-0.69869 -0.64167,-2.17828 -0.97314,-3.28797 l -0.60267,-2.01761 -3.48303,0.003 -3.48303,0.003 -0.89978,3.21029 -0.89977,3.21028 -1.41675,0.0911 c -0.77921,0.0501 -1.41473,0.0501 -1.41226,0 z m 10.5685,-10.02972 c -0.10946,-0.4521 -0.42692,-1.56179 -0.70547,-2.46598 -0.27855,-0.90419 -0.76153,-2.5519 -1.0733,-3.66159 -0.31176,-1.10969 -0.6424,-2.01761 -0.73475,-2.01761 -0.0924,0 -0.46136,1.10968 -0.82003,2.46597 -0.35867,1.35628 -0.9142,3.3739 -1.23453,4.48358 l -0.5824,2.01762 2.67475,0 2.67474,0 z m -114.81626,-40.70804 -5.15602,-5.29418 0.69595,-0.6538 0.69595,-0.65382 4.57874,4.66284 4.57874,4.66283 1.05302,-1.05302 1.05302,-1.05302 -2.01695,-2.30344 c -1.38936,-1.58671 -1.90364,-2.37348 -1.65278,-2.52852 0.23436,-0.14484 1.06296,0.55729 2.32441,1.96962 l 1.96024,2.1947 1.25757,-1.10493 c 0.69166,-0.60771 1.27024,-1.21932 1.28573,-1.35913 0.0155,-0.13981 -0.85219,-1.23783 -1.92816,-2.44004 -1.36367,-1.52366 -1.84449,-2.25494 -1.5872,-2.41395 0.24042,-0.14859 1.0684,0.54091 2.37469,1.97752 l 2.00558,2.20565 1.37249,-1.12465 1.37249,-1.12466 -1.93986,-2.40263 c -1.71338,-2.12214 -2.10241,-2.94185 -1.39618,-2.94185 0.11573,0 1.01572,1.00784 1.99997,2.23965 0.98426,1.23182 1.89833,2.24062 2.03127,2.2418 0.33072,0.003 2.59789,-1.83818 2.59789,-2.10967 0,-0.12008 -0.73979,-1.16381 -1.64398,-2.3194 -1.66088,-2.12268 -1.95163,-2.74866 -1.27035,-2.73509 0.29694,0.006 2.59589,2.75914 3.55528,4.25781 0.11352,0.17732 0.75786,-0.1051 1.56926,-0.6878 0.75717,-0.54375 1.37666,-1.0013 1.37666,-1.01678 0,-0.0155 -1.26092,-1.77489 -2.80205,-3.90983 -2.02324,-2.8028 -2.71924,-3.98554 -2.5041,-4.25533 0.16387,-0.20549 0.44962,-0.36687 0.63499,-0.35862 0.18536,0.008 1.48508,1.64635 2.88826,3.6402 1.40317,1.99385 2.6902,3.67151 2.86006,3.72813 0.16987,0.0566 0.86984,-0.30344 1.55551,-0.80013 l 1.24666,-0.90308 -1.64076,-2.42337 c -1.70493,-2.51817 -1.89466,-2.96048 -1.26712,-2.95399 0.20549,0.002 1.03119,1.01452 1.83488,2.24977 0.80369,1.23525 1.57598,2.31681 1.7162,2.40347 0.24651,0.15235 2.95012,-1.54159 2.95012,-1.8484 0,-0.0834 -0.69094,-1.22875 -1.53543,-2.54522 -1.0919,-1.70218 -1.44291,-2.48611 -1.21515,-2.71386 0.22775,-0.22776 0.80301,0.42032 1.99146,2.24356 l 1.67119,2.56383 1.48685,-0.92428 c 0.81777,-0.50836 1.48685,-0.98637 1.48685,-1.06227 0,-0.0759 -0.67254,-1.25141 -1.49453,-2.61226 -0.82199,-1.36084 -1.49453,-2.55647 -1.49453,-2.65693 0,-0.10047 0.19583,-0.18267 0.43518,-0.18267 0.23934,0 0.99845,0.97518 1.68691,2.16707 1.81243,3.13778 1.5997,3.0097 3.28093,1.97523 0.8095,-0.49809 1.47182,-0.966 1.47182,-1.0398 0,-0.0738 -0.60529,-1.20091 -1.34508,-2.50469 -1.41912,-2.501 -1.57781,-2.98924 -0.97144,-2.98876 0.2055,1.6e-4 0.9526,1.0728 1.66022,2.38364 0.70763,1.31084 1.41624,2.46348 1.57471,2.56141 0.22203,0.13723 1.59313,-0.50794 2.61143,-1.22882 0.0508,-0.036 -1.25256,-2.69258 -2.89646,-5.90354 l -2.98889,-5.83811 0.71888,-0.47103 c 0.39538,-0.25906 0.79019,-0.47102 0.87735,-0.47102 0.0872,0 1.45205,2.58927 3.03309,5.75394 1.58104,3.16466 2.92542,5.8086 2.98751,5.87543 0.13919,0.1498 2.48933,-0.89204 2.66938,-1.18336 0.0716,-0.11593 -0.40563,-1.30741 -1.06061,-2.64774 -1.29848,-2.65714 -1.3924,-3.01578 -0.78981,-3.01578 0.22059,0 0.91052,1.14332 1.53317,2.5407 0.62265,1.39739 1.23806,2.5407 1.36758,2.5407 0.23304,0 3.03373,-1.15452 3.19717,-1.31796 0.0466,-0.0466 -0.36853,-1.0806 -0.92254,-2.29773 -1.37516,-3.02113 -1.52812,-3.55805 -1.01364,-3.55805 0.2406,0 0.89879,1.11144 1.54884,2.61543 0.62173,1.43848 1.16481,2.65398 1.20685,2.7011 0.0688,0.0772 3.19682,-1.08623 3.36094,-1.25006 0.0376,-0.0375 -0.3996,-1.25996 -0.97145,-2.7166 -1.15879,-2.95171 -1.1992,-3.1433 -0.66302,-3.1433 0.20718,0 0.84609,1.21639 1.4198,2.7031 1.14599,2.96975 1.04226,2.91015 3.37114,1.93708 l 1.09753,-0.45858 -1.02448,-2.83017 c -0.65361,-1.80561 -0.91255,-2.89934 -0.7153,-3.02126 0.46085,-0.28482 0.68037,0.0916 1.58366,2.716 0.45269,1.31518 0.9176,2.49194 1.03314,2.61502 0.16502,0.17578 2.45978,-0.48989 2.98292,-0.86529 0.0615,-0.0441 -0.51018,-2.01153 -1.27035,-4.37204 -0.76016,-2.3605 -1.38212,-4.43542 -1.38212,-4.61094 0,-0.17552 0.26871,-0.38939 0.59713,-0.47528 0.53529,-0.13998 0.74099,0.29753 1.98622,4.22455 0.76399,2.40938 1.47047,4.46655 1.56993,4.57148 0.0995,0.10492 0.81976,-2e-5 1.60065,-0.23323 1.67557,-0.50038 1.6867,-0.56392 0.67165,-3.83198 -0.50698,-1.63225 -0.64251,-2.47657 -0.43143,-2.68765 0.42467,-0.42467 0.73684,0.15119 1.30234,2.40249 0.25627,1.02018 0.59446,2.19293 0.75155,2.6061 l 0.28561,0.75122 1.58711,-0.45839 c 0.87291,-0.25212 1.6223,-0.4879 1.6653,-0.52395 0.043,-0.0361 -0.25127,-1.33062 -0.65394,-2.8768 -0.44718,-1.7171 -0.62497,-2.91982 -0.4568,-3.09022 0.43105,-0.43677 0.58678,-0.10698 1.33146,2.81968 0.38339,1.50678 0.74199,2.7799 0.79689,2.82916 0.0943,0.0846 3.28092,-0.67977 3.422,-0.82085 0.0364,-0.0364 -0.12298,-0.79565 -0.35424,-1.68717 -0.71718,-2.7648 -0.88138,-4.60726 -0.39626,-4.44642 0.25322,0.084 0.65627,1.24575 1.02475,2.95383 0.67396,3.12407 0.54651,3.02656 3.30168,2.52632 l 0.91999,-0.16703 -0.38465,-1.86427 c -0.54538,-2.64331 -0.62085,-4.1732 -0.21289,-4.31555 0.22563,-0.0787 0.53692,0.93251 0.89613,2.91111 l 0.55041,3.03174 1.04676,-0.17324 c 0.57571,-0.0953 1.27878,-0.17472 1.56236,-0.17653 0.39809,-0.002 0.48239,-0.19065 0.36984,-0.82528 -0.87547,-4.93657 -1.90638,-12.12887 -1.77011,-12.34937 0.30206,-0.48874 1.5823,-0.3104 1.74929,0.24369 0.14762,0.48983 1.97498,11.89207 1.97498,12.32338 0,0.2343 2.89739,-0.10113 3.16236,-0.3661 0.10008,-0.10007 0.0216,-1.41597 -0.17445,-2.9242 -0.2555,-1.96584 -0.26489,-2.83377 -0.0332,-3.0655 0.17778,-0.17779 0.38031,-0.26496 0.45006,-0.19372 0.0697,0.0712 0.28619,1.4746 0.48096,3.11858 0.19478,1.64398 0.37534,3.00701 0.40125,3.02895 0.10509,0.089 3.55006,-0.45415 3.67538,-0.57947 0.0744,-0.0744 0.0234,-1.42602 -0.11325,-3.00365 -0.19142,-2.20949 -0.16241,-2.90144 0.12628,-3.01222 0.56046,-0.21507 0.62822,0.0391 0.86294,3.23665 l 0.21579,2.93978 1.3433,-0.18412 c 0.73881,-0.10127 1.61277,-0.18412 1.94212,-0.18412 0.57263,0 0.58989,-0.12967 0.39468,-2.96403 -0.14105,-2.0479 -0.10191,-3.02721 0.12661,-3.16844 0.55799,-0.34486 0.66891,0.0383 0.85786,2.96303 0.1003,1.55248 0.27148,2.91181 0.38039,3.02072 0.10891,0.10891 0.96082,0.10271 1.89312,-0.0138 l 1.6951,-0.21179 -0.20223,-2.95137 c -0.17026,-2.48465 -0.133,-2.95137 0.23559,-2.95137 0.55058,0 0.81145,1.26125 0.81145,3.92314 l 0,2.05498 1.79344,0 1.79343,0 0,-4.78249 0,-4.78249 0.74727,0 0.74726,0 0,4.78249 0,4.78249 1.78261,0 1.78261,0 0.0856,-2.8901 c 0.0587,-1.98277 0.20285,-2.92899 0.45919,-3.01397 0.28317,-0.0939 0.37363,0.64203 0.37363,3.03956 l 0,3.16342 1.76145,0 c 1.96106,0 2.12432,-0.15949 2.12432,-2.07507 0,-2.10162 0.36234,-3.90305 0.78505,-3.90305 0.32681,0 0.36821,0.59937 0.2147,3.10832 l -0.19018,3.10832 1.76228,0.11974 c 0.96926,0.0659 1.80244,0.0953 1.8515,0.0655 0.0491,-0.0298 0.21909,-1.30946 0.37782,-2.84365 0.28537,-2.75835 0.67525,-3.8367 1.0418,-2.88149 0.10084,0.2628 0.0575,1.66399 -0.0963,3.11377 -0.15379,1.44977 -0.24441,2.67948 -0.20137,2.73269 0.0993,0.12275 3.54382,0.60491 3.65101,0.51107 0.0438,-0.0384 0.22983,-1.26691 0.41329,-2.73005 0.36804,-2.93505 0.54867,-3.48292 1.0451,-3.16977 0.2439,0.15385 0.22127,0.96783 -0.084,3.02034 -0.22984,1.54534 -0.35461,2.873 -0.27727,2.95034 0.16845,0.16845 2.92321,0.70122 3.03706,0.58737 0.0437,-0.0437 0.56991,-2.89826 1.16928,-6.3434 0.59938,-3.44514 1.14336,-6.3506 1.20885,-6.45657 0.0655,-0.10597 0.45856,-0.12778 0.87348,-0.0485 0.52588,0.10053 0.75434,0.33738 0.7542,0.78191 -1.8e-4,0.56567 -1.51536,9.54518 -1.95633,11.59396 -0.16151,0.75039 -0.0863,0.81158 1.38485,1.12709 0.8556,0.1835 1.58351,0.29721 1.61758,0.2527 0.0341,-0.0445 0.30422,-1.29149 0.60032,-2.77108 0.2961,-1.47958 0.64987,-2.81569 0.78617,-2.96913 0.57336,-0.6455 0.62415,0.29555 0.15707,2.91054 -0.27342,1.53073 -0.49712,2.86514 -0.49712,2.96535 0,0.16199 2.63063,0.82957 3.26895,0.82957 0.13775,0 0.54983,-1.27783 0.91573,-2.83961 0.44571,-1.90244 0.80211,-2.8396 1.0799,-2.8396 0.54097,0 0.52768,0.20488 -0.19759,3.04548 -0.33672,1.31881 -0.56517,2.53899 -0.50766,2.71152 0.0978,0.29351 2.35394,1.10325 3.10185,1.11329 0.1859,0.002 0.65668,-1.22273 1.04617,-2.72273 0.61436,-2.36593 1.15807,-3.34895 1.60507,-2.90195 0.0681,0.0681 -0.21875,1.37741 -0.63748,2.90953 -0.41874,1.53212 -0.64841,2.89002 -0.51038,3.01756 0.13804,0.12754 0.92791,0.42566 1.75528,0.6625 l 1.5043,0.43061 0.71204,-2.4142 c 0.89609,-3.03821 1.17612,-3.6151 1.56573,-3.2255 0.19946,0.19946 0.0409,1.14529 -0.47605,2.84019 -0.42631,1.39763 -0.7751,2.67719 -0.7751,2.84346 0,0.38838 2.74282,1.3319 3.00208,1.0327 0.10763,-0.12421 0.8471,-2.14257 1.64326,-4.48525 1.12306,-3.30455 1.56476,-4.2594 1.97034,-4.2594 0.28753,0 0.59482,0.11656 0.68287,0.25903 0.088,0.14248 -0.51594,2.24759 -1.34221,4.67805 -0.82627,2.43046 -1.39477,4.51304 -1.26335,4.62796 0.51953,0.45429 2.88073,1.21207 3.07462,0.98674 0.11337,-0.13174 0.56712,-1.24834 1.00835,-2.48133 0.9479,-2.64888 1.21789,-3.12875 1.62041,-2.87998 0.18492,0.11429 -0.0895,1.22173 -0.71385,2.88069 -0.55784,1.48226 -1.01425,2.80171 -1.01425,2.93209 0,0.21617 2.65571,1.30095 3.20235,1.30808 0.12783,0.002 0.70871,-1.17767 1.29086,-2.62075 0.58214,-1.44308 1.22165,-2.67818 1.42112,-2.74467 0.49191,-0.16397 0.45598,0.52934 -0.0959,1.85011 -0.25221,0.60361 -0.72188,1.76553 -1.04372,2.58205 l -0.58516,1.48458 1.68747,0.74628 c 0.92812,0.41046 1.7141,0.71092 1.74663,0.66769 0.0592,-0.0786 1.15628,-2.50709 1.95981,-4.33801 0.39498,-0.9 1.17711,-1.35048 1.17711,-0.67796 0,0.16142 -0.53803,1.45805 -1.19562,2.88141 -0.65759,1.42336 -1.19562,2.6198 -1.19562,2.65876 0,0.12094 2.93452,1.34009 3.22561,1.34009 0.15135,0 0.82891,-1.14332 1.50569,-2.5407 0.67677,-1.39738 1.34626,-2.5407 1.48775,-2.5407 0.66297,0 0.53041,0.56047 -0.72261,3.05538 -0.74198,1.47739 -1.30705,2.72286 -1.25569,2.76771 0.17534,0.15312 2.60988,1.35065 2.74583,1.35065 0.0746,0 1.52098,-2.6229 3.21428,-5.82866 1.69329,-3.20577 3.16959,-5.82867 3.28065,-5.82867 0.11106,0 0.47998,0.23539 0.81983,0.52309 0.61566,0.52117 0.60705,0.54327 -2.35674,6.05284 -1.63606,3.04137 -2.97528,5.66731 -2.97604,5.83542 -9e-4,0.16811 0.47884,0.56428 1.06578,0.88037 1.23006,0.66243 1.00809,0.85378 2.86486,-2.46983 0.66999,-1.19928 1.37082,-2.12401 1.5574,-2.05497 0.4829,0.17869 0.33831,0.56843 -1.20111,3.23731 -0.75289,1.30529 -1.3196,2.4104 -1.25935,2.4558 0.59499,0.44835 2.33959,1.38198 2.58239,1.38198 0.17047,0 0.94079,-1.07606 1.71183,-2.39125 0.77104,-1.31518 1.59087,-2.39124 1.82184,-2.39124 0.66123,0 0.51991,0.3893 -1.07457,2.96014 -0.82199,1.32532 -1.49453,2.47361 -1.49453,2.55177 0,0.36898 2.76531,1.72556 2.94335,1.44393 0.10734,-0.1698 0.79796,-1.26629 1.53472,-2.43666 1.22185,-1.94095 2.09785,-2.68073 2.09785,-1.77163 0,0.19597 -0.69165,1.40983 -1.53702,2.69748 -0.84536,1.28764 -1.48427,2.38439 -1.4198,2.43721 0.86114,0.70561 2.51654,1.62067 2.71265,1.49947 0.13957,-0.0863 0.92824,-1.15638 1.75261,-2.37803 0.82436,-1.22166 1.60683,-2.22119 1.73882,-2.22119 0.69457,0 0.47161,0.59418 -1.01398,2.70224 -0.8995,1.2764 -1.63546,2.44309 -1.63546,2.59264 0,0.27953 1.51653,1.50077 2.04565,1.64733 0.16296,0.0451 1.56697,-1.63502 3.12003,-3.7337 2.39284,-3.2335 2.88063,-3.74721 3.1966,-3.36649 0.50719,0.61112 0.38424,0.8509 -2.36995,4.6221 -1.32301,1.81154 -2.40546,3.39767 -2.40546,3.52474 2e-5,0.4189 2.14002,1.94788 2.35763,1.68447 0.83582,-1.01176 2.3878,-3.09149 2.83712,-3.80189 0.38046,-0.60153 0.63377,-0.76029 0.85695,-0.5371 0.22319,0.22318 0.19288,0.48987 -0.10255,0.90221 -0.23067,0.32195 -1.00631,1.42515 -1.72366,2.45155 l -1.30426,1.86619 1.15481,0.9739 c 1.34683,1.13584 1.32371,1.14695 3.3966,-1.63107 1.26093,-1.68986 2.09234,-2.27761 2.09234,-1.47915 0,0.19113 -0.79971,1.31432 -1.77713,2.49596 l -1.77713,2.14844 1.17511,1.14747 1.17512,1.14747 1.48994,-1.65657 c 0.81946,-0.9111 1.75291,-1.97899 2.07433,-2.37307 0.53973,-0.66175 0.60062,-0.67484 0.79655,-0.17127 0.15396,0.39572 -0.10824,0.88756 -0.9561,1.79344 -0.64252,0.6865 -1.49312,1.62009 -1.89021,2.07464 l -0.72199,0.82646 1.12174,1.14876 1.12174,1.14877 1.69944,-1.81968 c 2.18319,-2.33766 2.52677,-2.60701 2.88136,-2.25886 0.17965,0.17639 -0.15395,0.74969 -0.90146,1.54913 -0.65266,0.69801 -1.58245,1.70927 -2.06621,2.24723 l -0.87957,0.97811 0.97712,0.96478 0.97713,0.96477 4.62158,-4.74809 c 4.51789,-4.64156 4.63484,-4.73608 5.21275,-4.21308 0.32515,0.29426 0.59118,0.67584 0.59118,0.84796 0,0.37899 -10.22383,10.68891 -10.49235,10.5807 -0.10406,-0.0419 -2.05647,-1.84072 -4.33869,-3.99729 -8.24888,-7.79477 -13.46213,-11.85402 -22.23328,-17.31174 -3.99609,-2.4865 -15.1613,-8.2316 -19.58378,-10.0769 -12.83576,-5.35577 -24.6711,-8.48986 -38.8523,-10.28837 -3.31415,-0.42032 -6.45427,-0.53248 -15.09474,-0.53919 -11.72225,-0.009 -15.82664,0.29243 -24.80918,1.82261 -7.52145,1.28128 -18.73161,4.22829 -19.20399,5.04849 -0.12291,0.21341 -0.46103,0.3259 -0.75137,0.24998 -1.15106,-0.30101 -10.4342,3.41544 -18.10777,7.24933 -6.81747,3.40617 -8.57338,4.41305 -14.54888,8.34265 -7.45915,4.90528 -14.31808,10.39971 -20.79651,16.65931 -1.65892,1.60288 -3.07125,2.89897 -3.13851,2.8802 -0.0673,-0.0188 -2.4425,-2.41651 -5.27831,-5.3283 z m 220.03908,-4.84642 c -0.3454,-0.38566 -0.70723,-0.92656 -0.80406,-1.202 -0.54178,-1.54107 1.93583,-5.28824 4.14173,-6.26402 1.16916,-0.51717 1.40528,-0.53309 2.30863,-0.15565 2.32901,0.97313 2.13436,3.54948 -0.48041,6.35866 -1.42126,1.52692 -1.70443,1.69611 -3.05225,1.82365 -1.28026,0.12114 -1.57247,0.0436 -2.11364,-0.56064 z m 3.85471,-1.94562 c 1.58336,-1.606 2.15129,-2.76161 1.88285,-3.83119 -0.40066,-1.59635 -2.53326,-0.57188 -4.37161,2.10008 -0.9494,1.3799 -1.10436,2.19065 -0.52872,2.76629 0.68939,0.68939 1.63809,0.36393 3.01748,-1.03518 z m -232.48744,0.21335 c -1.29191,-0.5314 -3.58467,-3.22658 -4.01182,-4.71597 -0.32727,-1.14112 0.30021,-2.65967 1.28428,-3.10804 1.76106,-0.80239 4.85874,1.07539 6.13992,3.72196 0.81483,1.68322 0.78566,2.35306 -0.15099,3.46619 -0.80173,0.95281 -1.94769,1.17623 -3.26139,0.63586 z m 2.47484,-2.10745 c 0.0667,-0.83462 -0.14486,-1.32891 -1.04617,-2.4444 -1.79194,-2.21777 -3.6463,-2.92999 -4.15784,-1.59694 -0.3294,0.8584 0.1864,1.89241 1.78979,3.58798 1.33808,1.415 1.74767,1.68027 2.46751,1.59808 0.74878,-0.0855 0.87419,-0.23713 0.94671,-1.14472 z m 221.96995,0.009 c -0.34719,-0.14211 -0.91885,-0.62401 -1.27035,-1.07087 -1.03596,-1.31701 -0.73213,-3.75107 0.41335,-3.31151 0.38318,0.14704 0.47153,0.4148 0.34523,1.04629 -0.45291,2.26459 2.18956,2.9579 3.27483,0.85922 0.43313,-0.83758 0.42492,-0.95532 -0.11737,-1.68249 -0.3207,-0.43003 -0.97076,-0.85017 -1.44457,-0.93364 -1.35493,-0.23868 -1.13647,-0.92836 0.78815,-2.48815 l 1.78209,-1.44428 1.1201,0.88826 c 1.65467,1.31221 2.26018,2.07171 2.06245,2.58698 -0.2572,0.67025 -0.54499,0.57959 -1.93375,-0.60913 l -1.24845,-1.06863 -0.76667,0.60306 -0.76667,0.60306 0.88274,0.45649 c 1.20562,0.62345 1.59108,1.82811 1.06687,3.3342 -0.22507,0.64662 -0.41124,1.19383 -0.41371,1.21602 -0.002,0.0222 -0.30912,0.23995 -0.68143,0.48389 -0.91963,0.60257 -2.32773,0.84443 -3.09284,0.53123 z M 460.24444,476.571 c -1.32705,-0.82683 -1.51696,-2.07393 -0.66517,-4.36803 0.77607,-2.09019 2.79159,-4.32672 3.89759,-4.32498 1.06441,0.002 2.54918,1.03207 2.77317,1.92453 0.38229,1.52317 -0.87192,4.74597 -2.41838,6.21423 -1.17311,1.11378 -2.3879,1.30148 -3.58721,0.55425 z m 2.24037,-1.09359 c 0.87961,-0.6161 2.45118,-3.75218 2.45118,-4.89135 0,-1.21619 -0.94705,-1.74519 -1.94903,-1.08867 -0.99247,0.65029 -2.2601,2.92016 -2.45902,4.40318 -0.13233,0.9866 -0.0535,1.32363 0.38449,1.6439 0.69299,0.50673 0.7571,0.50399 1.57238,-0.0671 z m -156.44916,-2.95456 c -0.75305,-1.56854 -1.47081,-2.9147 -1.59502,-2.99147 -0.12422,-0.0768 -0.40335,0.1921 -0.62031,0.59749 -0.86405,1.61448 -1.50291,0.38188 -0.74951,-1.44608 0.74698,-1.81237 0.91157,-2.10356 1.25343,-2.21751 0.16847,-0.0562 0.79135,0.94465 1.38419,2.224 0.59284,1.27936 1.48149,3.16544 1.97477,4.19129 0.87305,1.81565 0.88127,1.87354 0.30925,2.17968 -0.53368,0.28561 -0.71335,0.0526 -1.9568,-2.5374 z m 149.19133,1.34092 c -0.0986,-0.15957 0.022,-0.67945 0.26808,-1.15529 l 0.4474,-0.86517 -1.55608,-0.83339 c -0.85584,-0.45836 -1.59287,-0.86078 -1.63784,-0.89426 -0.40884,-0.30442 0.72636,-1.2635 2.87534,-2.42925 1.4227,-0.77177 2.85704,-1.57696 3.18743,-1.78931 0.38881,-0.2499 0.75711,-0.28943 1.0441,-0.11206 0.37302,0.23054 0.23995,0.68425 -0.83849,2.85874 -1.14228,2.30323 -1.2298,2.62279 -0.80365,2.9344 0.69975,0.51167 0.26714,1.42169 -0.57533,1.21024 -0.50399,-0.1265 -0.74216,0.0152 -1.0086,0.59994 -0.35104,0.77044 -1.06949,1.014 -1.40236,0.47541 z m 2.09328,-4.80383 0.76369,-1.50708 -1.57796,0.90121 c -1.84001,1.05087 -1.99225,1.29937 -1.06869,1.74438 1.03182,0.49717 1.06393,0.47775 1.88296,-1.13851 z m -146.70821,2.9961 c -1.19685,-0.94143 -2.60159,-4.01904 -2.60159,-5.69974 0,-1.18354 0.1335,-1.5301 0.78757,-2.0446 1.00206,-0.78822 2.49857,-0.79265 3.49312,-0.0103 1.12294,0.8833 2.62659,4.10854 2.64829,5.68039 0.0145,1.05289 -0.13479,1.43275 -0.78203,1.98949 -1.00031,0.86043 -2.5133,0.89662 -3.54536,0.0848 z m 2.86571,-1.21604 c 0.72757,-1.16287 -1.36822,-5.70822 -2.72059,-5.9004 -0.88501,-0.12578 -1.55109,0.43467 -1.55109,1.30511 0,0.83794 0.97973,3.17956 1.82981,4.37339 0.69201,0.97185 1.90376,1.08196 2.44187,0.2219 z m 112.74993,-0.57188 c -0.1016,-0.1644 -0.0423,-0.29891 0.13181,-0.29891 0.1741,0 0.31655,0.13451 0.31655,0.29891 0,0.1644 -0.0593,0.2989 -0.13181,0.2989 -0.0725,0 -0.21494,-0.1345 -0.31655,-0.2989 z m -75.1748,-11.33896 c 0,-0.70007 0.74476,-2.08745 2.10694,-3.92493 2.00289,-2.70175 1.91406,-4.35664 -0.2207,-4.11186 -0.65435,0.075 -0.90329,0.31109 -1.12606,1.06777 -0.38673,1.31363 -1.35799,1.35736 -1.35799,0.0611 0,-1.33706 1.16071,-2.37766 2.65212,-2.37766 1.6022,0 2.07545,0.2224 2.58979,1.217 0.82261,1.59076 0.59912,2.19036 -2.2223,5.96222 l -0.71671,0.95814 0.86616,-0.16691 c 0.47639,-0.0918 1.44898,-0.25506 2.1613,-0.36281 1.23117,-0.18624 1.29021,-0.16148 1.19562,0.50136 -0.0874,0.61236 -0.35433,0.74125 -2.19185,1.05826 -2.58543,0.44606 -3.73632,0.48249 -3.73632,0.11828 z m 61.24978,-0.10369 c -1.71295,-1.31517 -1.51725,-6.0143 0.33296,-7.99495 1.48325,-1.58783 3.7833,-1.04232 4.47779,1.06202 0.58119,1.76105 -0.16527,5.12882 -1.43941,6.49407 -0.8396,0.89965 -2.49117,1.11463 -3.37134,0.43886 z m 2.35725,-1.06805 c 0.52042,-0.33011 1.25552,-2.84492 1.25552,-4.29518 0,-1.54843 -0.45012,-2.32409 -1.3487,-2.32409 -1.14151,0 -1.60379,0.95537 -2.08242,4.30363 -0.26741,1.87069 0.90679,3.12047 2.1756,2.31564 z m -8.19759,0.3447 c -0.83266,-0.15854 -1.80918,-1.22548 -2.06501,-2.2562 -0.18336,-0.73878 -0.12508,-0.822 0.57566,-0.822 0.57736,0 0.77967,0.15333 0.77967,0.59093 0,0.325 0.33627,0.81125 0.74726,1.08054 0.69339,0.45433 0.80236,0.45353 1.5115,-0.0111 0.62896,-0.41211 0.748,-0.69595 0.67254,-1.60363 -0.0788,-0.94812 -0.22822,-1.14701 -1.06462,-1.41736 -0.83853,-0.27105 -0.92111,-0.38167 -0.59781,-0.80085 0.20631,-0.2675 0.71138,-0.52951 1.12237,-0.58224 0.63649,-0.0817 0.74727,-0.25096 0.74727,-1.14204 0,-0.9097 -0.10346,-1.05814 -0.79309,-1.13796 -0.54978,-0.0636 -0.9361,0.11238 -1.25924,0.57372 -0.38531,0.55011 -0.58382,0.613 -1.14478,0.36269 l -0.67865,-0.30282 0.94344,-0.94343 c 1.18588,-1.18588 2.3829,-1.2414 3.65665,-0.16961 1.10508,0.92987 1.2347,2.28969 0.31188,3.27199 -0.54027,0.5751 -0.55687,0.68918 -0.14945,1.02731 0.98832,0.82023 0.20886,3.66741 -1.10766,4.04602 -1.10294,0.31719 -1.53772,0.36367 -2.20793,0.23606 z m -47.66409,-0.71315 c -0.85575,-0.85575 -1.42191,-2.31345 -1.64901,-4.24572 -0.24893,-2.11802 0.25634,-3.66774 1.38636,-4.25209 1.29369,-0.669 2.04379,-0.54164 3.11146,0.52828 0.76433,0.76595 1.04964,1.39792 1.34874,2.98752 0.45412,2.41347 0.22516,3.92684 -0.74016,4.89215 -0.92329,0.9233 -2.58087,0.96638 -3.45739,0.0899 z m 2.70584,-1.14977 c 0.73114,-1.36616 0.0811,-5.40615 -0.99062,-6.15682 -0.78724,-0.5514 -0.93895,-0.54831 -1.51822,0.031 -0.8652,0.8652 -0.43295,4.95985 0.6525,6.18094 0.61341,0.69007 1.47117,0.66462 1.85634,-0.0551 z"
       id="path5387"
       inkscape:connector-curvature="0"
       sodipodi:nodetypes="sscssssssssssssscsscssscsssssssssssssscsssssscscccsssssssssssssssssscssssssscsssssscssssssssssccssssssssssssssssssssssssssssssssssssssssssssscccssssscccccccsscssssscsssssssscsscccccsccsssssscccsscccccccssscscssscccssscsssssssscscscscscsssscsssssssssssscscsssccssssssssscsssscsssscsssscssssscscssscssssscssscscsssscsscscsscscssssssccssscccccccccccscscsssscscsssscsssssscsssscssssssssscssssscssssssscssssssscsssscscsssssssscssssscssssssssssssssscsssssssscssssscsssscccssssscccsssscccssssssssssssssssssssssssssssssssssssssssssssssssscssscccsscsssscsssssssssscsscsssssccscssssssssscssscsssssccsssssssssssssssssscssssssssssssssssssssssssssssscssssssssssssssssss" />
  </g>
  <g
     inkscape:groupmode="layer"
     id="layer4"
     inkscape:label="gray"
     style="display:inline"
     transform="translate(-245.44515,-356.68349)">
    <g
       id="g6329"
       clip-path="url(#clipPath6551)">
      <path
         style="color:#000000;clip-rule:nonzero;display:inline;overflow:visible;visibility:visible;opacity:1;isolation:auto;mix-blend-mode:normal;color-interpolation:sRGB;color-interpolation-filters:linearRGB;solid-color:#000000;solid-opacity:1;fill:url(#pattern5659);fill-opacity:1;fill-rule:evenodd;stroke:none;stroke-width:0.51099998;stroke-linecap:butt;stroke-linejoin:miter;stroke-miterlimit:4;stroke-dasharray:none;stroke-dashoffset:0;stroke-opacity:1;marker:none;color-rendering:auto;image-rendering:auto;shape-rendering:auto;text-rendering:auto;enable-background:accumulate"
         id="path5543"
         sodipodi:type="arc"
         sodipodi:cx="382.82785"
         sodipodi:cy="550.49084"
         sodipodi:rx="153.72266"
         sodipodi:ry="153.72266"
         sodipodi:start="3.9182634"
         sodipodi:end="4.3942776"
         d="m 273.18501,442.7453 a 153.72266,153.72266 0 0 1 61.5625,-38.26451 l 48.08034,146.01005 z" />
      <path
         transform="scale(-1,1)"
         d="m -492.69148,442.78221 a 153.66998,153.66998 0 0 1 58.802,-37.32064 l 50.80327,145.02927 z"
         sodipodi:end="4.3754499"
         sodipodi:start="3.9182634"
         sodipodi:ry="153.66998"
         sodipodi:rx="153.66998"
         sodipodi:cy="550.49084"
         sodipodi:cx="-383.08621"
         sodipodi:type="arc"
         id="path6320"
         style="color:#000000;clip-rule:nonzero;display:inline;overflow:visible;visibility:visible;opacity:1;isolation:auto;mix-blend-mode:normal;color-interpolation:sRGB;color-interpolation-filters:linearRGB;solid-color:#000000;solid-opacity:1;fill:url(#pattern6322);fill-opacity:1;fill-rule:evenodd;stroke:none;stroke-width:0.51099998;stroke-linecap:butt;stroke-linejoin:miter;stroke-miterlimit:4;stroke-dasharray:none;stroke-dashoffset:0;stroke-opacity:1;marker:none;color-rendering:auto;image-rendering:auto;shape-rendering:auto;text-rendering:auto;enable-background:accumulate" />
    </g>
    <text
       xml:space="preserve"
       style="font-style:normal;font-variant:normal;font-weight:normal;font-stretch:normal;font-size:21.65597916px;line-height:125%;font-family:Gentium;-inkscape-font-specification:'Gentium, Normal';text-align:center;letter-spacing:0px;word-spacing:0px;writing-mode:lr-tb;text-anchor:middle;display:inline;fill:#000000;fill-opacity:1;stroke:none;stroke-width:1px;stroke-linecap:butt;stroke-linejoin:miter;stroke-opacity:1"
       x="479.6308"
       y="472.4007"
       id="text3557-8"
       sodipodi:linespacing="125%"><tspan
         sodipodi:role="line"
         id="tspan3559-1"
         x="479.6308"
         y="472.4007"
         style="font-style:normal;font-variant:normal;font-weight:normal;font-stretch:normal;font-family:'Old Standard TT';-inkscape-font-specification:'Old Standard TT'">Fucked</tspan></text>
    <text
       sodipodi:linespacing="125%"
       id="text3561-0"
       y="472.4007"
       x="280.64401"
       style="font-style:normal;font-variant:normal;font-weight:normal;font-stretch:normal;font-size:21.65597916px;line-height:125%;font-family:Gentium;-inkscape-font-specification:'Gentium, Normal';text-align:center;letter-spacing:0px;word-spacing:0px;writing-mode:lr-tb;text-anchor:middle;display:inline;fill:#000000;fill-opacity:1;stroke:none;stroke-width:1px;stroke-linecap:butt;stroke-linejoin:miter;stroke-opacity:1"
       xml:space="preserve"><tspan
         y="472.4007"
         x="280.64401"
         id="tspan3563-4"
         sodipodi:role="line"
         style="font-style:normal;font-variant:normal;font-weight:normal;font-stretch:normal;font-family:'Old Standard TT';-inkscape-font-specification:'Old Standard TT'">Safe</tspan></text>
  </g>
  <g
     inkscape:groupmode="layer"
     id="layer6"
     inkscape:label="Title (presidential election)"
     sodipodi:insensitive="true"
     style="display:none"
     transform="translate(-245.44515,-356.68349)">
    <text
       xml:space="preserve"
       style="font-style:normal;font-variant:normal;font-weight:normal;font-stretch:normal;font-size:18.6419487px;line-height:125%;font-family:Gentium;-inkscape-font-specification:'Gentium, Normal';text-align:center;letter-spacing:0px;word-spacing:0px;writing-mode:lr-tb;text-anchor:middle;display:inline;fill:#000000;fill-opacity:1;stroke:none;stroke-width:1px;stroke-linecap:butt;stroke-linejoin:miter;stroke-opacity:1"
       x="381.99362"
       y="385.85742"
       id="text3565-0"
       sodipodi:linespacing="125%"><tspan
         sodipodi:role="line"
         id="tspan3567-7"
         x="381.99362"
         y="385.85742"
         style="font-style:normal;font-variant:normal;font-weight:bold;font-stretch:normal;font-family:'Old Standard TT';-inkscape-font-specification:'Old Standard TT Bold'">PRESIDENTIAL ELECTION</tspan></text>
  </g>
  <g
     inkscape:label="Title (United States)"
     id="g4186"
     inkscape:groupmode="layer"
     sodipodi:insensitive="true"
     style="display:inline"
     transform="translate(-245.44515,-356.68349)">
    <text
       sodipodi:linespacing="125%"
       id="text4188"
       y="385.85742"
       x="381.99362"
       style="font-style:normal;font-variant:normal;font-weight:normal;font-stretch:normal;font-size:18.6419487px;line-height:125%;font-family:Gentium;-inkscape-font-specification:'Gentium, Normal';text-align:center;letter-spacing:0px;word-spacing:0px;writing-mode:lr-tb;text-anchor:middle;display:inline;fill:#000000;fill-opacity:1;stroke:none;stroke-width:1px;stroke-linecap:butt;stroke-linejoin:miter;stroke-opacity:1"
       xml:space="preserve"><tspan
         style="font-style:normal;font-variant:normal;font-weight:bold;font-stretch:normal;font-family:'Old Standard TT';-inkscape-font-specification:'Old Standard TT Bold'"
         y="385.85742"
         x="381.99362"
         id="tspan4190"
         sodipodi:role="line">UNITED STATES</tspan></text>
  </g>
  <g
     inkscape:groupmode="layer"
     id="layer5"
     inkscape:label="arc"
     style="display:inline"
     sodipodi:insensitive="true"
     transform="translate(-245.44515,-356.68349)">
    <path
       sodipodi:open="true"
       d="m 281.70289,452.41787 a 140.87074,140.87074 0 0 1 101.1757,-42.79776 140.87074,140.87074 0 0 1 101.14485,42.87063"
       sodipodi:end="5.5138277"
       sodipodi:start="3.9116706"
       sodipodi:ry="140.87074"
       sodipodi:rx="140.87074"
       sodipodi:cy="550.49084"
       sodipodi:cx="382.82785"
       sodipodi:type="arc"
       id="path5541"
       style="color:#000000;clip-rule:nonzero;display:inline;overflow:visible;visibility:visible;opacity:1;isolation:auto;mix-blend-mode:normal;color-interpolation:sRGB;color-interpolation-filters:linearRGB;solid-color:#000000;solid-opacity:1;fill:none;fill-opacity:1;fill-rule:evenodd;stroke:#000000;stroke-width:1.77165353;stroke-linecap:butt;stroke-linejoin:miter;stroke-miterlimit:4;stroke-dasharray:none;stroke-dashoffset:0;stroke-opacity:1;marker:none;color-rendering:auto;image-rendering:auto;shape-rendering:auto;text-rendering:auto;enable-background:accumulate" />
  </g>
  <g
     inkscape:groupmode="layer"
     id="layer7"
     inkscape:label="guides"
     style="display:none"
     transform="translate(-245.44515,-356.68349)">
    <path
       id="path6339"
       d="M 382.82812,395.49805 A 154.99281,154.99281 0 0 0 227.83594,550.49023 154.99281,154.99281 0 0 0 382.82812,705.48438 154.99281,154.99281 0 0 0 537.82031,550.49023 154.99281,154.99281 0 0 0 382.82812,395.49805 Z m 0,14.12109 a 140.87074,140.87074 0 0 1 140.8711,140.87109 140.87074,140.87074 0 0 1 -140.8711,140.8711 140.87074,140.87074 0 0 1 -140.87109,-140.8711 140.87074,140.87074 0 0 1 140.87109,-140.87109 z"
       style="color:#000000;clip-rule:nonzero;display:inline;overflow:visible;visibility:visible;opacity:1;isolation:auto;mix-blend-mode:normal;color-interpolation:sRGB;color-interpolation-filters:linearRGB;solid-color:#000000;solid-opacity:1;fill:none;fill-opacity:1;fill-rule:evenodd;stroke:#ff0000;stroke-width:1.77165353;stroke-linecap:butt;stroke-linejoin:miter;stroke-miterlimit:4;stroke-dasharray:none;stroke-dashoffset:0;stroke-opacity:1;marker:none;color-rendering:auto;image-rendering:auto;shape-rendering:auto;text-rendering:auto;enable-background:accumulate"
       inkscape:connector-curvature="0" />
    <circle
       id="path5545"
       style="color:#000000;clip-rule:nonzero;display:inline;overflow:visible;visibility:visible;opacity:1;isolation:auto;mix-blend-mode:normal;color-interpolation:sRGB;color-interpolation-filters:linearRGB;solid-color:#000000;solid-opacity:1;fill:none;fill-opacity:1;fill-rule:evenodd;stroke:#ff0000;stroke-width:1.77165353;stroke-linecap:butt;stroke-linejoin:miter;stroke-miterlimit:4;stroke-dasharray:none;stroke-dashoffset:0;stroke-opacity:1;marker:none;color-rendering:auto;image-rendering:auto;shape-rendering:auto;text-rendering:auto;enable-background:accumulate"
       cx="382.82785"
       cy="550.49084"
       r="140.87074" />
  </g>
  <g
     inkscape:groupmode="layer"
     id="layer3"
     inkscape:label="tick marks"
     style="display:inline"
     transform="translate(-245.44515,-356.68349)">
    <g
       id="g6391"
       clip-path="url(#clipPath6544)">
      <path
         sodipodi:nodetypes="cc"
         inkscape:transform-center-y="-59.980423"
         inkscape:transform-center-x="61.170054"
         inkscape:connector-curvature="0"
         id="path5547"
         d="M 382.82785,550.49084 273.09888,442.70487"
         style="fill:none;fill-rule:evenodd;stroke:#000000;stroke-width:1.77165353;stroke-linecap:butt;stroke-linejoin:miter;stroke-miterlimit:4;stroke-dasharray:none;stroke-opacity:1" />
      <path
         style="fill:none;fill-rule:evenodd;stroke:#000000;stroke-width:1.77165353;stroke-linecap:butt;stroke-linejoin:miter;stroke-miterlimit:4;stroke-dasharray:none;stroke-opacity:1"
         d="M 382.82785,550.49084 273.09888,442.70487"
         id="path5551"
         inkscape:connector-curvature="0"
         inkscape:transform-center-x="54.857335"
         inkscape:transform-center-y="-53.878768"
         sodipodi:nodetypes="cc" />
      <path
         sodipodi:nodetypes="cc"
         inkscape:transform-center-y="-68.283863"
         inkscape:transform-center-x="35.349155"
         inkscape:connector-curvature="0"
         id="path5557"
         d="M 382.82307,550.49236 312.12002,413.89316"
         style="fill:none;fill-rule:evenodd;stroke:#000000;stroke-width:1.77165353;stroke-linecap:butt;stroke-linejoin:miter;stroke-miterlimit:4;stroke-dasharray:none;stroke-opacity:1" />
      <path
         style="fill:none;fill-rule:evenodd;stroke:#000000;stroke-width:1.77165353;stroke-linecap:butt;stroke-linejoin:miter;stroke-miterlimit:4;stroke-dasharray:none;stroke-opacity:1"
         d="M 382.81802,550.49231 358.47553,398.61833"
         id="path5559"
         inkscape:connector-curvature="0"
         inkscape:transform-center-x="12.173925"
         inkscape:transform-center-y="-75.921303"
         sodipodi:nodetypes="cc" />
      <path
         sodipodi:nodetypes="cc"
         inkscape:transform-center-y="-75.724613"
         inkscape:transform-center-x="-13.342855"
         inkscape:connector-curvature="0"
         id="path5561"
         d="M 382.81303,550.49057 409.51408,399.01345"
         style="fill:none;fill-rule:evenodd;stroke:#000000;stroke-width:1.77165353;stroke-linecap:butt;stroke-linejoin:miter;stroke-miterlimit:4;stroke-dasharray:none;stroke-opacity:1" />
      <path
         style="fill:none;fill-rule:evenodd;stroke:#000000;stroke-width:1.77165353;stroke-linecap:butt;stroke-linejoin:miter;stroke-miterlimit:4;stroke-dasharray:none;stroke-opacity:1"
         d="M 382.80898,550.48739 456.51433,415.48448"
         id="path5563"
         inkscape:connector-curvature="0"
         inkscape:transform-center-x="-36.840955"
         inkscape:transform-center-y="-67.490688"
         sodipodi:nodetypes="cc" />
      <path
         sodipodi:nodetypes="cc"
         inkscape:transform-center-y="-53.836363"
         inkscape:transform-center-x="-54.898955"
         inkscape:connector-curvature="0"
         id="path5565"
         d="M 382.80635,550.48351 492.63296,442.79701"
         style="fill:none;fill-rule:evenodd;stroke:#000000;stroke-width:1.77165353;stroke-linecap:butt;stroke-linejoin:miter;stroke-miterlimit:4;stroke-dasharray:none;stroke-opacity:1" />
      <path
         style="fill:none;fill-rule:evenodd;stroke:#000000;stroke-width:1.0629921;stroke-linecap:butt;stroke-linejoin:miter;stroke-miterlimit:4;stroke-dasharray:none;stroke-opacity:1"
         d="M 382.80751,550.48553 474.12875,429.68458"
         id="path5567"
         inkscape:connector-curvature="0"
         inkscape:transform-center-x="-45.647664"
         inkscape:transform-center-y="-60.404404"
         sodipodi:nodetypes="cc" />
      <path
         sodipodi:nodetypes="cc"
         inkscape:transform-center-y="-75.709789"
         inkscape:transform-center-x="-0.655604"
         inkscape:connector-curvature="0"
         id="path5575"
         d="m 382.80772,550.49402 1.3367,-151.4287"
         style="fill:none;fill-rule:evenodd;stroke:#000000;stroke-width:1.0629921;stroke-linecap:butt;stroke-linejoin:miter;stroke-miterlimit:4;stroke-dasharray:none;stroke-opacity:1" />
      <path
         style="fill:none;fill-rule:evenodd;stroke:#000000;stroke-width:1.0629921;stroke-linecap:butt;stroke-linejoin:miter;stroke-miterlimit:4;stroke-dasharray:none;stroke-opacity:1"
         d="M 382.80986,550.49788 335.3855,406.68074"
         id="path5577"
         inkscape:connector-curvature="0"
         inkscape:transform-center-x="23.722786"
         inkscape:transform-center-y="-71.900149"
         sodipodi:nodetypes="cc" />
      <path
         sodipodi:nodetypes="cc"
         inkscape:transform-center-y="-60.885154"
         inkscape:transform-center-x="45.004451"
         inkscape:connector-curvature="0"
         id="path5579"
         d="M 382.81302,550.50077 292.81901,428.70784"
         style="fill:none;fill-rule:evenodd;stroke:#000000;stroke-width:1.0629921;stroke-linecap:butt;stroke-linejoin:miter;stroke-miterlimit:4;stroke-dasharray:none;stroke-opacity:1" />
      <path
         style="fill:none;fill-rule:evenodd;stroke:#000000;stroke-width:1.0629921;stroke-linecap:butt;stroke-linejoin:miter;stroke-miterlimit:4;stroke-dasharray:none;stroke-opacity:1"
         d="M 382.80693,550.48967 432.90639,407.58242"
         id="path5571"
         inkscape:connector-curvature="0"
         inkscape:transform-center-x="-25.036194"
         inkscape:transform-center-y="-71.453414"
         sodipodi:nodetypes="cc" />
    </g>
  </g>
</svg>
